<svg width="140" height="140" viewBox="0 0 140 140" fill="none" xmlns="http://www.w3.org/2000/svg">
<g clip-path="url(#clip0_108_6)">
<path d="M107.188 0H32.8125C14.6907 0 0 14.6907 0 32.8125V107.188C0 125.309 14.6907 140 32.8125 140H107.188C125.309 140 140 125.309 140 107.188V32.8125C140 14.6907 125.309 0 107.188 0Z" fill="#242938"/>
<path d="M124.688 100.044C123.095 100.647 121.338 100.645 119.747 100.04C118.155 99.4352 116.841 98.2681 116.052 96.7597C111.095 89.3402 105.622 82.2555 100.362 75.0187L98.0809 71.978C91.817 80.3704 85.5531 88.428 79.8366 96.7903C79.0921 98.232 77.8488 99.3539 76.3384 99.9469C74.828 100.54 73.1535 100.564 71.627 100.014L95.1316 68.4813L73.2687 39.9891C74.8425 39.4208 76.5641 39.413 78.143 39.9669C79.7219 40.5209 81.0613 41.6027 81.935 43.0297C87.0127 50.4497 92.6384 57.5345 98.233 65.0453C103.859 57.5952 109.423 50.4798 114.623 43.1211C115.372 41.7028 116.616 40.6092 118.118 40.0486C119.621 39.4879 121.277 39.4993 122.772 40.0805L114.288 51.3313C110.487 56.3483 106.747 61.396 102.794 66.2916C102.476 66.5767 102.221 66.9259 102.046 67.3162C101.872 67.7066 101.781 68.1294 101.781 68.5571C101.781 68.9847 101.872 69.4075 102.046 69.7979C102.221 70.1882 102.476 70.5374 102.794 70.8225C110.062 80.4617 117.268 90.131 124.688 100.044ZM15.3125 68.0859C15.9512 65.0453 16.3461 61.7307 17.2282 58.6294C22.4886 39.929 43.9255 32.1442 58.6731 43.7297C67.3088 50.511 69.4679 60.1196 69.0424 70.9444H20.3908C19.6 90.2836 33.5568 101.96 51.4057 96.0001C54.3011 94.9642 56.8929 93.2238 58.9474 90.9357C61.0018 88.6476 62.4542 85.884 63.1734 82.8942C64.1162 79.8536 65.6365 79.3368 68.5251 80.2183C68.0494 83.9202 66.7407 87.466 64.6973 90.5892C62.6538 93.7123 59.9289 96.3316 56.7273 98.2499C51.4378 101.143 45.3689 102.289 39.3886 101.524C33.4084 100.76 27.823 98.1236 23.4314 93.993C19.0867 89.1079 16.4596 82.9354 15.9512 76.4176C15.9512 75.384 15.5559 74.3498 15.3431 73.3769C15.323 71.6133 15.3128 69.8496 15.3125 68.0859ZM20.4515 66.7783H64.4509C64.1769 52.7608 55.3284 42.8176 43.5307 42.7268C30.3948 42.5441 20.9989 52.2741 20.4209 66.7176L20.4515 66.7783Z" fill="white"/>
</g>
<defs>
<clipPath id="clip0_108_6">
<rect width="140" height="140" fill="white"/>
</clipPath>
</defs>
</svg>
