<svg width="39" height="39" viewBox="0 0 39 39" fill="none" xmlns="http://www.w3.org/2000/svg">
<path d="M19.5 6.82581L1.71283 13.4962L19.5 22.3898L27.9719 18.1539L20.0243 15.724C19.8607 15.8025 19.6815 15.8434 19.5 15.8438C19.1768 15.8438 18.8668 15.7154 18.6382 15.4868C18.4097 15.2583 18.2813 14.9483 18.2813 14.625C18.2813 14.3018 18.4097 13.9918 18.6382 13.7633C18.8668 13.5347 19.1768 13.4063 19.5 13.4063L19.2985 14.0615L20.7105 14.4959C20.7107 14.4974 20.7109 14.4988 20.7111 14.5002L22.7947 15.1374L34.6582 18.7875V19.7126C34.4941 19.8243 34.3598 19.9743 34.2669 20.1496C34.174 20.325 34.1253 20.5204 34.125 20.7189C34.1253 20.9219 34.1762 21.1216 34.2732 21.3C34.3702 21.4783 34.5102 21.6296 34.6805 21.74C34.1258 23.8367 34.125 28.5937 34.125 30.4688C35.3438 31.2606 35.3438 31.2895 36.5625 30.4688C36.5625 28.5939 36.5619 23.8378 36.0072 21.7407C36.1776 21.6301 36.3177 21.4787 36.4146 21.3003C36.5116 21.1218 36.5625 20.9219 36.5625 20.7188C36.5625 20.5201 36.5139 20.3245 36.421 20.1489C36.328 19.9732 36.1936 19.823 36.0293 19.7113V17.775L31.5105 16.3846L37.2872 13.4962L19.5 6.82581ZM9.11194 18.9668L8.11233 24.9646C10.1061 25.2253 12.4911 26.3842 14.6837 27.7546C15.9306 28.534 17.0986 29.3894 18.0471 30.2195C18.6269 30.7268 19.1118 31.2135 19.5 31.6924C19.8883 31.2134 20.3731 30.7268 20.9529 30.2195C21.9015 29.3894 23.0694 28.534 24.3164 27.7546C26.5089 26.3842 28.8939 25.2253 30.8877 24.9646L29.888 18.9668H29.4119L19.5 23.9228L9.58801 18.9668H9.11194Z" fill="white"/>
</svg>
