<svg width="44" height="44" viewBox="0 0 44 44" fill="none" xmlns="http://www.w3.org/2000/svg">
<g clip-path="url(#clip0_6_26)">
<path d="M38.3002 3.67766L38.4945 3.66666L38.7328 3.68133L38.8978 3.71066L39.1233 3.77483L39.3195 3.85916L39.5028 3.96366L39.6678 4.0865L39.8182 4.224L39.9135 4.33216L40.0638 4.54483L40.1592 4.72083C40.2453 4.90416 40.3003 5.0985 40.3242 5.30016L40.3333 5.4945C40.3333 5.632 40.3187 5.76766 40.2893 5.89783L40.2252 6.12333L28.2498 39.2645C28.0228 39.7587 27.6588 40.1774 27.2009 40.4708C26.743 40.7643 26.2105 40.9202 25.6667 40.92C25.1769 40.9216 24.695 40.7962 24.268 40.5562C23.841 40.3162 23.4835 39.9697 23.2302 39.5505L23.111 39.3177L16.9657 27.0307L4.73734 20.9147C4.28487 20.7077 3.89467 20.3856 3.60575 19.9806C3.31684 19.5755 3.13934 19.1017 3.091 18.6065L3.08 18.3333C3.08 17.3067 3.63184 16.368 4.62184 15.8217L4.8785 15.6933L37.9097 3.76566L38.104 3.71066L38.3002 3.67766Z" fill="white"/>
</g>
<defs>
<clipPath id="clip0_6_26">
<rect width="44" height="44" fill="white"/>
</clipPath>
</defs>
</svg>
