<svg width="114" height="114" viewBox="0 0 114 114" fill="none" xmlns="http://www.w3.org/2000/svg">
<g clip-path="url(#clip0_108_16)">
<path d="M87.2812 0H26.7188C11.9624 0 0 11.9624 0 26.7188V87.2812C0 102.038 11.9624 114 26.7188 114H87.2812C102.038 114 114 102.038 114 87.2812V26.7188C114 11.9624 102.038 0 87.2812 0Z" fill="#023430"/>
<path d="M76.2255 47.9116C71.5332 27.213 61.7542 21.7027 59.2595 17.8076C58.2307 16.0917 57.3195 14.308 56.532 12.4688C56.4002 14.3079 56.1579 15.4657 54.5949 16.8604C51.4567 19.6583 38.1285 30.5195 37.0068 54.0378C35.9617 75.9659 53.1271 89.4869 55.3946 90.8847C57.1385 91.7428 59.2622 90.903 60.2984 90.1152C68.5728 84.4366 79.8784 69.2969 76.2344 47.9116" fill="#10AA50"/>
<path d="M57.2427 79.2083C56.8107 84.6357 56.5012 87.7894 55.404 90.891C55.404 90.891 56.1241 96.058 56.6299 101.531H58.4196C58.8466 97.6769 59.4984 93.8508 60.3719 90.0725C58.0549 88.9325 57.3317 83.9709 57.2427 79.2083Z" fill="#B8C4C2"/>
<path d="M60.3688 90.0756C58.0273 88.9939 57.35 83.9276 57.2458 79.2082C57.8247 71.4228 57.9935 63.6124 57.7517 55.8093C57.6288 51.7151 57.8096 17.8873 56.7431 12.9346C57.4727 14.612 58.3134 16.2389 59.2595 17.8045C61.7542 21.7028 71.5363 27.2131 76.2255 47.9116C79.8784 69.2604 68.6342 84.36 60.3688 90.0756Z" fill="#12924F"/>
</g>
<defs>
<clipPath id="clip0_108_16">
<rect width="114" height="114" fill="white"/>
</clipPath>
</defs>
</svg>
