<svg width="128" height="145" viewBox="0 0 128 145" fill="none" xmlns="http://www.w3.org/2000/svg">
<path d="M122.843 32.026L70.1338 1.42003C66.8096 -0.473344 62.4814 -0.473344 59.1309 1.42003L5.85823 32.026C2.42768 33.9995 0 37.7085 0 41.6758V102.806C0 106.774 2.49103 110.484 5.92158 112.468L19.9964 120.462C26.7236 123.776 29.1011 123.776 32.1623 123.776C42.1228 123.776 47.8125 117.753 47.8125 107.247V46.8957C47.8125 46.0434 47.369 44.7752 46.5323 44.7752H39.8111C38.96 44.7752 37.0547 46.0434 37.0547 46.8945V107.246C37.0547 111.903 32.8424 116.537 24.9701 112.601L10.4267 104.218C9.9199 103.943 9.5625 103.39 9.5625 102.806V41.6758C9.5625 41.0996 10.2259 40.5211 10.7363 40.2259L63.8369 9.67247C64.3329 9.39157 65.0621 9.39157 65.5569 9.67247L118.01 40.2187C118.512 40.5211 118.335 41.0817 118.335 41.6758V102.806C118.335 103.39 118.553 103.958 118.057 104.238L65.3609 134.81C64.9091 135.081 64.3485 135.081 63.8536 134.81L50.3382 126.743C49.9306 126.506 49.4465 126.421 49.0556 126.64C45.2952 128.771 44.6019 129.054 41.0745 130.277C40.2067 130.58 38.9265 131.104 41.5646 132.583L59.2528 143.047C60.9416 144.022 62.8573 144.536 64.8075 144.536C66.7702 144.536 68.6922 144.027 70.386 143.047L122.842 112.468C126.273 110.47 127.898 106.774 127.898 102.806V41.6758C127.898 37.7085 126.273 34.009 122.843 32.026ZM81.1737 93.1196C67.1574 93.1196 64.0699 89.2528 63.0408 82.2829C62.9213 81.5323 62.2841 80.6346 61.5203 80.6346H54.67C53.8225 80.6346 53.1412 81.6626 53.1412 82.5064C53.1412 91.4307 57.993 102.243 81.1749 102.243C97.9559 102.243 107.577 95.723 107.577 84.1835C107.577 72.7419 99.8468 69.7393 83.5727 67.5854C67.1228 65.4111 65.4517 64.3126 65.4517 60.4589C65.4517 57.2818 66.867 53.0444 79.0472 53.0444C89.9305 53.0444 93.942 55.38 95.5927 62.7157C95.7338 63.4053 96.3637 63.9002 97.0749 63.9002H103.953C104.376 63.9002 104.78 63.7293 105.076 63.4269C105.363 63.1017 105.515 62.6941 105.477 62.2567C104.412 49.6246 96.0194 43.7377 79.046 43.7377C63.948 43.7377 54.9413 50.1135 54.9413 60.8008C54.9413 72.3929 63.9026 75.5963 78.3958 77.0295C95.7338 78.7293 97.0821 81.2633 97.0821 84.6735C97.0821 90.5963 92.3271 93.1196 81.1737 93.1196Z" fill="#83CD29"/>
</svg>
