<svg width="38" height="38" viewBox="0 0 38 38" fill="none" xmlns="http://www.w3.org/2000/svg">
<path d="M34.2787 32.6563C34.1744 32.8368 34.0245 32.9868 33.8439 33.091C33.6633 33.1952 33.4585 33.2501 33.25 33.25H4.75C4.54166 33.2498 4.33703 33.1948 4.15668 33.0905C3.97633 32.9861 3.82659 32.8362 3.72251 32.6557C3.61843 32.4752 3.56367 32.2706 3.56372 32.0622C3.56377 31.8539 3.61864 31.6492 3.72282 31.4688C5.98352 27.5604 9.46735 24.7579 13.533 23.4294C11.522 22.2322 9.95949 20.4079 9.08555 18.2367C8.21161 16.0656 8.07454 13.6675 8.69538 11.4109C9.31623 9.15432 10.6607 7.16389 12.5222 5.74532C14.3838 4.32675 16.6595 3.55847 19 3.55847C21.3405 3.55847 23.6162 4.32675 25.4778 5.74532C27.3393 7.16389 28.6838 9.15432 29.3046 11.4109C29.9255 13.6675 29.7884 16.0656 28.9145 18.2367C28.0405 20.4079 26.478 22.2322 24.467 23.4294C28.5327 24.7579 32.0165 27.5604 34.2772 31.4688C34.3816 31.6492 34.4368 31.8539 34.437 32.0623C34.4373 32.2708 34.3827 32.4756 34.2787 32.6563Z" fill="white"/>
</svg>
