<svg width="91" height="91" viewBox="0 0 91 91" fill="none" xmlns="http://www.w3.org/2000/svg">
<path d="M69.6719 0H21.3281C9.54893 0 0 9.54893 0 21.3281V69.6719C0 81.4511 9.54893 91 21.3281 91H69.6719C81.4511 91 91 81.4511 91 69.6719V21.3281C91 9.54893 81.4511 0 69.6719 0Z" fill="#0277BD"/>
<path d="M19.1075 36.4892L20.1249 47.8436H45.5341V36.4892H19.1075ZM45.5338 13.5078H17.0625L18.0948 24.8622H45.5338V13.5078ZM45.5338 77.7911V65.9778L45.484 65.991L32.8386 62.5767L32.0302 53.5208H20.6321L22.2228 71.349L45.4815 77.8057L45.5338 77.7911Z" fill="#EBEBEB"/>
<path d="M59.4761 47.8436L58.158 62.5693L45.4944 65.9874V77.8L68.7716 71.349L68.9422 69.4305L71.6104 39.5384L71.8873 36.4892L73.9373 13.5078H45.4944V24.8622H61.4937L60.4607 36.4892H45.4944V47.8436H59.4761Z" fill="white"/>
</svg>
