<svg width="73" height="110" viewBox="0 0 73 110" fill="none" xmlns="http://www.w3.org/2000/svg">
<g clip-path="url(#clip0_6_164)">
<path d="M18.25 109.5C28.324 109.5 36.5 101.324 36.5 91.25V73H18.25C8.176 73 0 81.176 0 91.25C0 101.324 8.176 109.5 18.25 109.5Z" fill="#0ACF83"/>
<path d="M0 54.75C0 44.676 8.176 36.5 18.25 36.5H36.5V73H18.25C8.176 73 0 64.824 0 54.75Z" fill="#A259FF"/>
<path d="M0 18.25C0 8.176 8.176 0 18.25 0H36.5V36.5H18.25C8.176 36.5 0 28.324 0 18.25Z" fill="#F24E1E"/>
<path d="M36.5 0H54.75C64.824 0 73 8.176 73 18.25C73 28.324 64.824 36.5 54.75 36.5H36.5V0Z" fill="#FF7262"/>
<path d="M73 54.75C73 64.824 64.824 73 54.75 73C44.676 73 36.5 64.824 36.5 54.75C36.5 44.676 44.676 36.5 54.75 36.5C64.824 36.5 73 44.676 73 54.75Z" fill="#1ABCFE"/>
</g>
<defs>
<clipPath id="clip0_6_164">
<rect width="73" height="109.5" fill="white"/>
</clipPath>
</defs>
</svg>
