<svg width="88" height="88" viewBox="0 0 88 88" fill="none" xmlns="http://www.w3.org/2000/svg">
<path d="M67.375 0H20.625C9.23413 0 0 9.23413 0 20.625V67.375C0 78.7659 9.23413 88 20.625 88H67.375C78.7659 88 88 78.7659 88 67.375V20.625C88 9.23413 78.7659 0 67.375 0Z" fill="#E14E1D"/>
<path d="M16.5 13.0625L19.4597 46.2663H57.5163L56.2392 60.5079L43.9859 63.821L31.7556 60.5127L30.9378 51.3683H19.9169L21.493 68.9961L43.9835 75.2428L66.5026 68.9961L69.5217 35.2877H29.502L28.4972 24.0436H70.5165L71.5 13.0625H16.5Z" fill="white"/>
<path d="M44 13.0625H16.5L19.4597 46.2663H44V35.2877H29.502L28.4972 24.0436H44V13.0625ZM44 63.8162L43.9859 63.821L31.7556 60.5127L30.9378 51.3683H19.9169L21.493 68.9961L43.9835 75.2428L44.0003 75.2379V63.8162H44Z" fill="#EBEBEB"/>
</svg>
