<svg width="97" height="97" viewBox="0 0 97 97" fill="none" xmlns="http://www.w3.org/2000/svg">
<path d="M74.2656 0H22.7344C10.1785 0 0 10.1785 0 22.7344V74.2656C0 86.8215 10.1785 97 22.7344 97H74.2656C86.8215 97 97 86.8215 97 74.2656V22.7344C97 10.1785 86.8215 0 74.2656 0Z" fill="#330000"/>
<path d="M46.8829 57.7197H31.8479L28.7761 67.2178C28.6954 67.5815 28.3722 67.824 28.0085 67.7835H20.4099C19.9654 67.7835 19.8442 67.541 19.9654 67.056L32.9797 29.5898C33.101 29.1858 33.2222 28.741 33.3836 28.256C33.5454 27.4072 33.6261 26.5183 33.6261 25.629C33.586 25.4271 33.7474 25.2248 33.9497 25.1846H44.4174C44.741 25.1846 44.9024 25.3058 44.9429 25.5078L59.6949 67.1371C59.8161 67.5815 59.6949 67.7835 59.291 67.7835H50.8436C50.561 67.824 50.2779 67.6221 50.1972 67.339L46.8829 57.7197ZM34.1922 49.5153H44.4579C44.2154 48.6665 43.8922 47.656 43.5285 46.6053C43.1647 45.514 42.801 44.3421 42.4372 43.1296C42.0329 41.8765 41.6692 40.664 41.2649 39.411C40.861 38.1583 40.4972 36.986 40.1736 35.814C39.8504 34.6826 39.5674 33.6315 39.2847 32.6615H39.2036C38.8399 34.3996 38.3954 36.1376 37.8297 37.8753C37.2235 39.8153 36.6172 41.836 35.9704 43.8571C35.4484 45.7647 34.8553 47.6521 34.1922 49.5153ZM68.7079 32.2573C67.3742 32.2978 66.081 31.7723 65.111 30.8428C64.1815 29.8323 63.6965 28.4985 63.7367 27.1246C63.6965 25.7503 64.2217 24.4571 65.1917 23.5272C66.1617 22.5978 67.4553 22.1128 68.789 22.1128C70.3653 22.1128 71.5778 22.5978 72.4667 23.5272C73.3624 24.5071 73.8408 25.7976 73.8004 27.1246C73.841 28.4985 73.356 29.8323 72.386 30.8428C71.4565 31.8128 70.0822 32.3383 68.7079 32.2573ZM64.1815 67.339V36.2183C64.1815 35.814 64.3429 35.6523 64.7067 35.6523H72.7092C73.0729 35.6523 73.2347 35.8546 73.2347 36.2183V67.339C73.2347 67.7835 73.0729 67.9858 72.7092 67.9858H64.7878C64.3835 67.9858 64.1815 67.7433 64.1815 67.339Z" fill="#FF9A00"/>
</svg>
