<svg width="88" height="88" viewBox="0 0 88 88" fill="none" xmlns="http://www.w3.org/2000/svg">
<path d="M67.375 0H20.625C9.23413 0 0 9.23413 0 20.625V67.375C0 78.7659 9.23413 88 20.625 88H67.375C78.7659 88 88 78.7659 88 67.375V20.625C88 9.23413 78.7659 0 67.375 0Z" fill="#F0DB4F"/>
<path d="M23.139 73.5393L29.8731 69.4638C31.1725 71.7672 32.3543 73.7163 35.1892 73.7163C37.9065 73.7163 39.6198 72.6534 39.6198 68.5188V40.4007H47.8897V68.6357C47.8897 77.2009 42.8689 81.0997 35.5436 81.0997C28.9281 81.0997 25.0881 77.6735 23.1387 73.5386M52.3815 72.6531L59.1149 68.7546C60.8876 71.6493 63.1914 73.7758 67.2669 73.7758C70.6937 73.7758 72.8786 72.0625 72.8786 69.6996C72.8786 66.8643 70.6339 65.8599 66.8534 64.2065L64.7864 63.3199C58.8199 60.7803 54.862 57.5903 54.862 50.8562C54.862 44.6536 59.5879 39.9277 66.972 39.9277C72.2293 39.9277 76.0098 41.7592 78.7268 46.5439L72.2881 50.6789C70.8701 48.1389 69.3349 47.1348 66.972 47.1348C64.5499 47.1348 63.014 48.6707 63.014 50.6789C63.014 53.1597 64.5499 54.1641 68.0939 55.7004L70.1613 56.5862C77.1906 59.5992 81.1486 62.6702 81.1486 69.5813C81.1486 77.0249 75.3007 81.1004 67.4443 81.1004C59.7652 81.1004 54.8032 77.4381 52.3815 72.6531Z" fill="#323330"/>
</svg>
