<svg width="99" height="99" viewBox="0 0 99 99" fill="none" xmlns="http://www.w3.org/2000/svg">
<g clip-path="url(#clip0_111_4)">
<path d="M75.7969 0H23.2031C10.3884 0 0 10.3884 0 23.2031V75.7969C0 88.6116 10.3884 99 23.2031 99H75.7969C88.6116 99 99 88.6116 99 75.7969V23.2031C99 10.3884 88.6116 0 75.7969 0Z" fill="#242938"/>
<path d="M46.9674 10.849C46.8011 10.8641 46.2717 10.9171 45.7952 10.9546C34.8101 11.945 24.5203 17.8726 18.0029 26.9829C14.3743 32.0485 12.0529 37.7944 11.1762 43.881C10.8664 46.0056 10.8285 46.6333 10.8285 49.5135C10.8285 52.3942 10.8664 53.0219 11.1766 55.1461C13.278 69.6697 23.6134 81.8726 37.6304 86.3937C40.1406 87.2028 42.7866 87.7546 45.7956 88.0872C46.9678 88.2156 52.033 88.2156 53.2051 88.0872C58.3992 87.5125 62.7993 86.2275 67.139 84.0119C67.8042 83.672 67.9329 83.5811 67.8421 83.5057C67.7817 83.4601 64.9463 79.6571 61.5444 75.0606L55.3599 66.7063L47.6101 55.237C43.3461 48.9315 39.8382 43.775 39.8077 43.775C39.7775 43.7677 39.7473 48.8635 39.7323 55.0858C39.7094 65.9804 39.7021 66.419 39.566 66.6757C39.3695 67.0462 39.2183 67.1974 38.9004 67.3641C38.6587 67.4847 38.4468 67.5076 37.3052 67.5076H35.9973L35.6493 67.2883C35.4338 67.1533 35.2588 66.9626 35.1427 66.7364L34.9841 66.3961L34.9996 51.2375L35.022 36.0712L35.2564 35.7761C35.3774 35.6176 35.6346 35.4134 35.816 35.3152C36.1257 35.164 36.2468 35.1489 37.5546 35.1489C39.0973 35.1489 39.354 35.2092 39.7551 35.6477C39.8684 35.7688 44.0643 42.0893 49.0847 49.7026C54.1672 57.4088 59.2528 65.1129 64.3415 72.8149L70.4656 82.0919L70.7757 81.8877C73.5199 80.1034 76.4234 77.563 78.7216 74.9167C83.6132 69.2992 86.7662 62.4497 87.8246 55.1461C88.1344 53.0219 88.1723 52.3942 88.1723 49.5135C88.1723 46.6333 88.1344 46.0056 87.8246 43.881C85.7228 29.3574 75.3873 17.1548 61.3703 12.6337C58.898 11.8321 56.2672 11.2802 53.3185 10.9476C52.5926 10.8718 47.595 10.7891 46.9678 10.8494L46.9674 10.849ZM62.7989 34.2412C63.1616 34.4226 63.4567 34.7703 63.5626 35.133C63.623 35.3299 63.6381 39.5335 63.623 49.0066L63.6001 62.6005L61.2037 58.9259L58.7994 55.2517V45.3702C58.7994 38.9816 58.8296 35.3902 58.8748 35.2162C58.9959 34.7931 59.2604 34.4605 59.6235 34.2637C59.9333 34.1051 60.047 34.0896 61.2338 34.0896C62.353 34.0896 62.5494 34.1051 62.7989 34.2412Z" fill="white"/>
</g>
<defs>
<clipPath id="clip0_111_4">
<rect width="99" height="99" fill="white"/>
</clipPath>
</defs>
</svg>
