<svg width="102" height="102" viewBox="0 0 102 102" fill="none" xmlns="http://www.w3.org/2000/svg">
<path d="M78.0938 0H23.9062C10.7032 0 0 10.7032 0 23.9062V78.0938C0 91.2968 10.7032 102 23.9062 102H78.0938C91.2968 102 102 91.2968 102 78.0938V23.9062C102 10.7032 91.2968 0 78.0938 0Z" fill="#001E36"/>
<path d="M22.9495 70.938V27.2055C22.9495 26.9079 23.077 26.7382 23.3746 26.7382C24.097 26.7382 24.7771 26.7382 25.7545 26.6955C26.7745 26.6529 27.8371 26.6529 28.9846 26.6107C30.1321 26.568 31.3645 26.568 32.6821 26.5254C33.9993 26.4832 35.2743 26.4832 36.5493 26.4832C40.0345 26.4832 42.9243 26.9079 45.3046 27.8004C47.4381 28.525 49.3834 29.7155 50.9995 31.2855C52.3689 32.6595 53.427 34.3118 54.1021 36.1305C54.7396 37.9155 55.0795 39.7432 55.0795 41.6557C55.0795 45.3105 54.2296 48.3279 52.5295 50.7082C50.8293 53.088 48.4495 54.873 45.6871 55.893C42.7968 56.9557 39.6093 57.3382 36.1246 57.3382C35.1046 57.3382 34.4245 57.3382 33.9993 57.2955C33.5746 57.2529 32.9793 57.2529 32.1721 57.2529V70.8954C32.2143 71.193 32.002 71.448 31.7043 71.4907H23.4595C23.1196 71.4907 22.9495 71.3205 22.9495 70.938ZM32.2143 34.9404V49.2204C32.8096 49.263 33.3618 49.3057 33.8718 49.3057H36.1246C37.7821 49.3057 39.4396 49.0507 41.0118 48.5407C42.3721 48.1582 43.5618 47.3505 44.497 46.2879C45.3895 45.2257 45.8146 43.7805 45.8146 41.9107C45.8545 40.5825 45.5154 39.2704 44.8368 38.1279C44.1145 37.023 43.0945 36.1732 41.8621 35.7054C40.2895 35.0679 38.5893 34.8129 36.847 34.8555C35.7421 34.8555 34.7643 34.8555 33.9571 34.8982C33.1068 34.8555 32.512 34.8982 32.2143 34.9404ZM81.5995 46.6282C80.3245 45.948 78.9646 45.4807 77.5195 45.183C75.9468 44.8432 74.3746 44.6304 72.7593 44.6304C71.9095 44.5882 71.017 44.7157 70.2093 44.928C69.6571 45.0555 69.1893 45.3532 68.8921 45.7779C68.6793 46.1182 68.5518 46.5429 68.5518 46.9254C68.5518 47.3079 68.722 47.6904 68.977 48.0307C69.3595 48.498 69.8695 48.8805 70.4221 49.1782C71.4074 49.6885 72.4141 50.1564 73.4395 50.5807C75.7345 51.3457 77.9446 52.4079 79.9846 53.6829C81.3871 54.5754 82.5346 55.7655 83.3418 57.2107C84.022 58.5705 84.3618 60.0579 84.3196 61.5879C84.3618 63.5857 83.767 65.583 82.6621 67.2405C81.4766 68.937 79.8225 70.2514 77.902 71.0229C75.8193 71.9154 73.2693 72.3832 70.2093 72.3832C68.2546 72.3832 66.3421 72.213 64.4296 71.8305C62.9307 71.5716 61.4728 71.1143 60.0946 70.4707C59.797 70.3005 59.5846 70.0029 59.6268 69.663V62.268C59.6268 62.1405 59.6695 61.9704 59.797 61.8855C59.9245 61.8007 60.052 61.8429 60.1795 61.9282C61.837 62.9055 63.5793 63.5857 65.4496 64.0104C67.0645 64.4355 68.7646 64.6479 70.4643 64.6479C72.0796 64.6479 73.2271 64.4355 73.9921 64.053C74.6718 63.7554 75.1396 63.033 75.1396 62.268C75.1396 61.6732 74.7993 61.1205 74.1196 60.5679C73.4395 60.0157 72.037 59.3782 69.9543 58.5705C67.818 57.8177 65.7893 56.789 63.9196 55.5105C62.5878 54.5613 61.4844 53.3272 60.6895 51.8979C60.0093 50.538 59.6695 49.0507 59.7121 47.5629C59.7121 45.7357 60.2221 43.9929 61.1568 42.4207C62.2195 40.7205 63.7921 39.3607 65.6193 38.5104C67.6171 37.4904 70.1245 37.023 73.1418 37.023C74.8846 37.023 76.6696 37.1505 78.412 37.4055C79.687 37.5757 80.9193 37.9155 82.0668 38.3829C82.237 38.4255 82.4071 38.5957 82.492 38.7654C82.5346 38.9355 82.5768 39.1057 82.5768 39.2754V46.203C82.5768 46.3732 82.492 46.5429 82.3645 46.6282C81.982 46.713 81.7696 46.713 81.5995 46.6282Z" fill="#31A8FF"/>
</svg>
