<svg width="120" height="106" viewBox="0 0 120 106" fill="none" xmlns="http://www.w3.org/2000/svg">
<path d="M59.5621 63.5293C65.4363 63.5293 70.1982 58.7673 70.1982 52.8932C70.1982 47.019 65.4363 42.2571 59.5621 42.2571C53.688 42.2571 48.926 47.019 48.926 52.8932C48.926 58.7673 53.688 63.5293 59.5621 63.5293Z" fill="#00D8FF"/>
<path d="M59.5621 77.2793C46.7781 77.5886 34.0261 75.8653 21.7827 72.174C16.127 70.3811 10.8519 67.5568 6.22424 63.8438C4.45835 62.5754 2.98777 60.9399 1.9134 59.0497C0.839029 57.1595 0.1863 55.0592 0 52.8929C0 45.8603 7.72606 38.9681 20.6681 34.4584C33.2388 30.4625 46.373 28.5258 59.5621 28.7235C72.5752 28.5416 85.5335 30.4433 97.9457 34.3563C103.393 36.0928 108.489 38.7806 112.998 42.2951C114.734 43.5044 116.182 45.0806 117.241 46.912C118.3 48.7435 118.943 50.7853 119.124 52.8929C119.124 60.202 110.488 67.609 96.5757 72.2123C84.5694 75.7834 72.0865 77.4922 59.5621 77.2793ZM59.5621 33.8118C46.9439 33.6431 34.3794 35.4842 22.3401 39.2659C10.4276 43.4225 5.08831 49.1065 5.08831 52.8801C5.08831 56.8283 10.8275 63.0355 23.4292 67.3452C35.142 70.8588 47.3375 72.4943 59.5621 72.191C71.5443 72.4053 83.4888 70.784 94.9803 67.3835C108.063 63.0483 114.019 56.8325 114.019 52.8929C113.804 51.541 113.312 50.2482 112.572 49.0963C111.832 47.9445 110.862 46.9585 109.722 46.2007C105.688 43.0828 101.135 40.7007 96.2737 39.1638C84.3996 35.4359 72.0063 33.6291 59.5621 33.8118Z" fill="#00D8FF"/>
<path d="M35.398 105.942C33.4133 105.987 31.452 105.506 29.714 104.546C23.6217 101.032 21.5115 90.8981 24.0684 77.4328C26.8876 64.5465 31.7723 52.201 38.5335 40.8744C44.8757 29.5112 52.9951 19.2359 62.5838 10.4381C66.8092 6.58661 71.6835 3.51422 76.9808 1.36342C78.8969 0.465471 80.987 0 83.103 0C85.219 0 87.3091 0.465471 89.2251 1.36342C95.56 5.01372 97.6574 16.1944 94.7006 30.5446C91.7943 42.7317 87.0365 54.4011 80.5929 65.146C74.4738 76.3749 66.6101 86.5607 57.2956 95.3227C52.9168 99.3252 47.8351 102.483 42.3072 104.636C40.0941 105.457 37.7582 105.899 35.398 105.942ZM42.9411 43.4015C36.4918 54.2475 31.81 66.0509 29.0716 78.3687C26.7189 90.7704 28.978 98.2285 32.2624 100.126C35.666 102.096 43.9281 100.228 53.9601 91.4639C62.852 83.0697 70.3577 73.3196 76.198 62.5763C82.3709 52.304 86.9349 41.1473 89.7314 29.4938C92.5138 15.9859 90.11 7.71529 86.698 5.74974C85.4191 5.25974 84.0526 5.0404 82.6846 5.10557C81.3167 5.17075 79.9771 5.51902 78.7507 6.12839C74.0354 8.07414 69.7004 10.8365 65.9448 14.2884C56.7836 22.7155 49.0279 32.5524 42.9709 43.427L42.9411 43.4015Z" fill="#00D8FF"/>
<path d="M83.7134 105.997C77.9486 105.997 70.6267 102.508 63.0028 95.9523C53.2461 87.0745 44.9894 76.6771 38.5525 65.163C31.8762 53.9923 27.0301 41.8254 24.198 29.1236C22.9698 23.5354 22.7422 17.7736 23.5258 12.1059C23.707 10.0033 24.3472 7.96618 25.4013 6.13801C26.4555 4.30983 27.8978 2.73518 29.6267 1.52508C35.9531 -2.13799 46.687 1.62718 57.6422 11.3528C66.7492 19.9561 74.4829 29.9052 80.5736 40.8531C87.2458 51.7629 92.1427 63.6634 95.0812 76.1096C96.3623 81.9029 96.5599 87.8833 95.6641 93.7485C95.451 95.9115 94.7726 98.0028 93.6755 99.8791C92.5783 101.755 91.0885 103.372 89.308 104.619C87.5984 105.566 85.6675 106.042 83.7134 105.997ZM42.9559 62.6018C49.1309 73.6056 57.018 83.5564 66.3212 92.0808C75.8895 100.313 83.4794 102.083 86.7425 100.164C90.1461 98.1859 92.6562 90.111 90.0695 77.0456C87.2355 65.1627 82.5387 53.8032 76.1532 43.3887C70.341 32.9106 62.9591 23.3838 54.2642 15.1393C43.9514 5.98373 35.5872 3.93734 32.1794 5.9114C31.1172 6.77455 30.2456 7.84855 29.6195 9.06559C28.9934 10.2826 28.6265 11.6163 28.5418 12.9823C27.8654 18.0369 28.0857 23.1712 29.1928 28.1493C31.9169 40.2964 36.5646 51.93 42.9601 62.6103L42.9559 62.6018Z" fill="#00D8FF"/>
</svg>
