<svg width="200" height="191" viewBox="0 0 200 191" fill="none" xmlns="http://www.w3.org/2000/svg">
<g clip-path="url(#clip0_25_6)">
<path d="M138.564 132.865C145.942 132.099 151.539 125.724 151.284 118.073C151.03 110.423 144.67 104.302 137.037 104.302H136.529C128.641 104.558 122.536 111.188 122.79 119.093C123.045 122.919 124.571 126.234 126.861 128.529C118.211 145.616 104.982 158.111 85.1377 168.567C71.6538 175.707 57.6616 178.258 43.6693 176.473C32.2206 174.943 23.3162 169.843 17.7183 161.426C9.57769 148.931 8.8147 135.414 15.6839 121.899C20.518 112.208 28.1495 105.067 32.9835 101.497C31.966 98.1818 30.4392 92.5716 29.6762 88.4917C-7.21352 115.268 -3.39702 151.481 7.79712 168.567C16.1923 181.318 33.2381 189.224 52.0645 189.224C57.1524 189.224 62.2403 188.713 67.3289 187.439C99.8938 181.063 124.572 161.681 138.564 132.865ZM183.341 101.243C164.005 78.5456 135.511 66.05 102.947 66.05H98.8762C96.5864 61.4597 91.7524 58.399 86.4099 58.399H85.9007C78.0147 58.6542 71.9092 65.2844 72.163 73.1906C72.4176 80.8407 78.7777 86.9614 86.4099 86.9614H86.9183C92.5154 86.7062 97.3494 83.1359 99.3846 78.2904H103.964C123.3 78.2904 141.617 83.9007 158.154 94.8667C170.874 103.282 180.033 114.249 185.121 127.509C189.446 138.22 189.192 148.675 184.612 157.602C177.489 171.117 165.532 178.513 149.758 178.513C139.582 178.513 129.914 175.452 124.826 173.157C122.027 175.707 116.939 179.787 113.377 182.338C124.317 187.438 135.511 190.244 146.196 190.244C170.62 190.244 188.683 176.727 195.552 163.212C202.93 148.42 202.421 122.919 183.341 101.243ZM54.0996 137.199C54.3542 144.85 60.7143 150.97 68.3465 150.97H68.8557C76.7425 150.715 82.848 144.084 82.5934 136.179C82.3396 128.528 75.9787 122.408 68.3465 122.408H67.8381C67.3289 122.408 66.5652 122.408 66.0576 122.663C55.6264 105.322 51.3015 86.451 52.8283 66.0492C53.8451 50.7481 58.9337 37.4869 67.8381 26.5208C75.2158 17.0851 89.4626 12.4948 99.1308 12.2404C126.098 11.7301 137.546 45.3922 138.309 58.9086C141.617 59.6734 147.214 61.4589 151.03 62.7341C147.977 21.4217 122.536 0 98.1132 0C75.2158 0 54.0996 16.5763 45.7037 41.058C34.0011 73.7002 41.6333 105.067 55.8802 129.804C54.6088 131.589 53.8451 134.394 54.0996 137.199Z" fill="#764ABC"/>
</g>
<defs>
<clipPath id="clip0_25_6">
<rect width="200" height="191" fill="white"/>
</clipPath>
</defs>
</svg>
