<svg width="142" height="85" viewBox="0 0 142 85" fill="none" xmlns="http://www.w3.org/2000/svg">
<path d="M71 0C52.0663 0 40.237 9.44125 35.5 28.3315C42.5978 18.8891 50.8837 15.3484 60.3478 17.7093C65.7515 19.0529 69.6133 22.9623 73.8899 27.2944C80.8501 34.3416 88.9064 42.5 106.5 42.5C125.433 42.5 137.263 33.0576 142 14.163C134.901 23.6109 126.616 27.1516 117.151 24.7907C111.748 23.4459 107.891 19.5377 103.609 15.2056C96.6532 8.15843 88.5991 0 71 0ZM35.5 42.5C16.5674 42.5 4.73703 51.9424 0 70.837C7.09778 61.3891 15.3826 57.8484 24.8478 60.2093C30.2515 61.5541 34.1133 65.4623 38.3899 69.7944C45.3501 76.8416 53.4064 85 71 85C89.9326 85 101.763 75.5588 106.5 56.6685C99.4011 66.1109 91.1163 69.6516 81.6511 67.2907C76.2485 65.9471 72.3912 62.0377 68.109 57.7056C61.1532 50.6584 53.0991 42.5 35.5 42.5Z" fill="#38BDF8"/>
</svg>
