<svg width="91" height="88" viewBox="0 0 91 88" fill="none" xmlns="http://www.w3.org/2000/svg">
<path d="M75.2724 1.31611e-05L14.984 2.61988e-06C6.70855 1.17296e-06 -1.17296e-06 6.70855 -2.61988e-06 14.984L-1.27665e-05 73.016C-1.42134e-05 81.2914 6.70854 88 14.984 88L75.2724 88C83.5478 88 90.2564 81.2915 90.2564 73.016L90.2564 14.984C90.2564 6.70857 83.5479 1.4608e-05 75.2724 1.31611e-05Z" fill="#470137"/>
<path d="M47.4479 23.1421L36.1859 41.7303L48.2348 61.4686C48.3123 61.6068 48.3339 61.769 48.2954 61.9227C48.2767 61.9883 48.2365 62.0045 48.1748 62.007L48.1064 62.0059L48.0232 62.0038C47.9781 62.0038 47.9277 62.0059 47.8716 62.0151L39.1845 62.0151L39.0138 62.0123C38.5456 61.9999 38.2082 61.933 38.0027 61.5896C37.1989 60.0236 36.3915 58.4595 35.5806 56.8973C34.8552 55.5039 34.11 54.1209 33.3453 52.7487L33.0075 52.1444C32.0929 50.5188 31.1948 48.884 30.3132 47.2402L30.2526 47.2402C29.4385 48.8668 28.6009 50.4815 27.7399 52.0837C26.8715 53.6985 26.0137 55.3033 25.1665 56.8973C24.3188 58.4925 23.451 60.0769 22.5632 61.6502C22.4204 61.971 22.1831 62.038 21.8528 62.049L21.7153 62.0511L13.4205 62.0511L13.3845 62.0521L13.2661 62.0627C13.2001 62.0666 13.1607 62.0525 13.148 61.9531C13.1252 61.8054 13.1576 61.6546 13.2389 61.5293L24.9243 42.3357L13.5414 23.0822C13.4205 22.9214 13.4004 22.7902 13.4808 22.6887C13.5255 22.637 13.5816 22.5963 13.6447 22.57C13.7077 22.5437 13.7761 22.5324 13.8443 22.5371L22.3813 22.5371C22.5674 22.5269 22.7536 22.558 22.9263 22.6281C23.0709 22.7102 23.1953 22.8241 23.2895 22.9612C24.0161 24.576 24.8235 26.1907 25.7116 27.8048C26.5928 29.4086 27.491 31.0031 28.4059 32.588C29.3068 34.1483 30.145 35.744 30.9186 37.3712L30.9792 37.3712C31.772 35.7444 32.5895 34.1297 33.4313 32.5277C34.2581 30.9535 35.106 29.3687 35.974 27.7744C36.831 26.2006 37.6687 24.6163 38.4867 23.0219C38.5333 22.8724 38.6165 22.737 38.729 22.6281C38.8785 22.5523 39.0465 22.5208 39.2134 22.5371L47.145 22.5371C47.2179 22.5189 47.2948 22.5249 47.364 22.5542C47.4332 22.5834 47.4911 22.6344 47.5288 22.6993C47.5666 22.7643 47.5823 22.8398 47.5735 22.9144C47.5646 22.9891 47.5318 23.0588 47.48 23.1132L47.4482 23.1428L47.4479 23.1421ZM65.2418 62.796L64.8243 62.8006C62.0374 62.8431 59.2761 62.264 56.7411 61.1055C54.3796 60.0125 52.4055 58.2284 51.08 55.9891C49.7434 53.7693 49.0573 51.0031 49.0228 47.6915L49.0214 47.4218C48.9987 44.6429 49.7089 41.9071 51.0803 39.4901C52.4529 37.0979 54.4539 35.1269 56.8666 33.7906L57.0743 33.6778C59.6974 32.2245 62.8662 31.4979 66.5801 31.4979L66.7423 31.4996L66.9277 31.5056L67.1357 31.5148L67.367 31.5282L67.7556 31.5557L68.1956 31.5909L68.5174 31.6192L68.5174 19.6912C68.5174 19.4092 68.6387 19.2674 68.8806 19.2674L76.5097 19.2674C76.5591 19.2603 76.6094 19.2649 76.6566 19.2806C76.7039 19.2964 76.7469 19.3229 76.7821 19.3581C76.8174 19.3934 76.8439 19.4364 76.8597 19.4836C76.8754 19.5309 76.8799 19.5812 76.8729 19.6306L76.8729 55.4141C76.8729 56.0148 76.8961 56.6621 76.9427 57.3546L77.0555 58.9252L77.1154 59.8338C77.1229 59.9596 77.0922 60.0848 77.0273 60.1928C76.9624 60.3009 76.8665 60.3869 76.7519 60.4395C74.7838 61.2602 72.7338 61.869 70.6367 62.2556C68.8564 62.5842 67.0519 62.7649 65.2418 62.796ZM68.5174 55.2928L68.5174 38.7635C68.1902 38.6749 67.8561 38.6142 67.5186 38.5819C67.1062 38.5404 66.6918 38.5202 66.2773 38.5213C64.808 38.5068 63.3561 38.8387 62.0391 39.4901C60.7563 40.1278 59.661 41.0875 58.8604 42.2754C58.0611 43.4445 57.6475 44.9711 57.6204 46.8552L57.619 47.0586C57.5895 48.3784 57.8051 49.6922 58.2547 50.9333C58.6207 51.9336 59.1992 52.8426 59.9505 53.5976C60.6694 54.2922 61.5399 54.8103 62.4932 55.1112C63.5002 55.4373 64.5527 55.6009 65.6113 55.596C66.1761 55.596 66.7007 55.5755 67.1855 55.535C67.5721 55.5059 67.9553 55.4422 68.3306 55.3446L68.5174 55.2928Z" fill="#FF61F6"/>
</svg>
